/* XPM */
static char *_2fd6d77db7547a4a42dc3e906290b3d[] = {
/* columns rows colors chars-per-pixel */
"185 94 37 1 ",
"  c black",
". c #202020",
"X c #2C2C2C",
"o c gray22",
"O c #570104",
"+ c #6F0206",
"@ c #7A0307",
"# c #484848",
"$ c gray33",
"% c #646464",
"& c gray44",
"* c #7C7C7C",
"= c #860309",
"- c #96040B",
"; c #A2050D",
": c #A6050E",
"> c #AE060F",
", c #BA0711",
"< c #C60813",
"1 c #D20915",
"2 c #DD0A16",
"3 c #F90D1B",
"4 c #F9252C",
"5 c #F94246",
"6 c #F95658",
"7 c #F95D60",
"8 c #FA7D7E",
"9 c gray55",
"0 c #989898",
"q c gray66",
"w c #B4B4B4",
"e c #FA9D9E",
"r c #C0C0C0",
"t c #D0D0D0",
"y c gainsboro",
"u c #ECECEC",
"i c gray99",
/* pixels */
"%%%%%%%%%%%%%%%%%%%%%%%%%%%%%%%$$$$$$$$$$$$$$$$$$$$$$$$$$$$$$$$$$$$$$$$$$$$$$$$$$$$$$##########################################################oooooooooooooooooooooooooooooooooooooooooo",
"%%%%%%%%%%%%%%%%%%%%%%%%%%%%%%%$$$$$$$$$$$$$$$$$$$$$$$$$$$$$$$$$$$$$$$$$$$$$$$$$$$$$$##########################################################oooooooooooooooooooooooooooooooooooooooooo",
"%%%%%%%%%%%%%%%%%%%%%%%%%%%%%%%$$$$$$$$$$$$$$$$$$$$$$$$$$$$$$$$$$$$$$$$$$$$$$$$$$$$$$##########################################################oooooooooooooooooooooooooooooooooooooooooo",
"%%                                                                                                                                                                                     oo",
"%%                                                                                                                                                                                     oo",
"%%                                                                                                                                                                                     oo",
"%%                                                                                                                                                                                     oo",
"%%                                                                                                                                                                                     oo",
"%%      ***$$$ooo                                                                                                                                                       ***$$$ooo      oo",
"%%      ***$$$ooo                                                                                                                                                       ***$$$ooo      oo",
"%%      ***$$$ooo                                                                                                                                                       ***$$$ooo      oo",
"%%      $$$ooo...                                                                                                                                                       $$$ooo...      oo",
"%%      $$$ooo...                                                                                                                                                       $$$ooo...      oo",
"%%      $$$ooo...                                                                                                                                                       $$$ooo...      oo",
"%%      ooo......                                                                                                                                                       ooo......      oo",
"%%      ooo......                                                                                                                                                       ooo......      oo",
"%%      ooo......                                                                                                                                                       ooo......      oo",
"%%                                                                                                                                                                                     oo",
"%%                                                                                                                                                                                     oo",
"%%                                                                                                                                                                                     oo",
"%%                                                                                                                                                                                     oo",
"%%                                                                                                                                                                                     oo",
"%%                                                                                                                                                                                     oo",
"%%                       ***rrr$$$                                                                                                                                                     oo",
"%%                       ***rrr$$$                                                                                                                                                     oo",
"%%                  ;;;%%qqqqqqiii$$$                                                                                                                              ##qqq%%%            oo",
"%%                  ;;;%%qqqqqqiii$$$                                                                                                                              ##qqq%%%            oo",
"%%                  ;;;%%qqqqqqiii$$$                                                                                                                              ##qqq%%%            oo",
"%%               666000wwwwwwwwwwwiii$$$                                                                                                                  qqqyyyqqq99%%%ooo            oo",
"%%               666000wwwwwwwwwwwiii$$$                                                                                                                  qqqyyyqqq99%%%ooo            oo",
"%%               666000wwwwwwwwwwwiii$$$                                                                                                                  qqqyyyqqq99%%%ooo            oo",
"%%            <<<rrrrrrrrrrrrrrrrrrrruuu$$$                                                                                                            555&&&&&&&&&&&ooo               oo",
"%%            <<<rrrrrrrrrrrrrrrrrrrruuu$$$                                                                                                            555&&&&&&&&&&&ooo               oo",
"%%            <<<rrrrrrrrrrrrrrrrrrrruuu$$$                                                                                                            555&&&&&&&&&&&ooo               oo",
"%%            &&&tttttttt   ttttttttttttqqq                                                                                                            111999******                    oo",
"%%            &&&tttttttt   ttttttttttttqqq                                                                                                            111999******                    oo",
"%%            &&&tttttttt   ttttttttttttqqq                                                                                                            111999******                    oo",
"%%            999qqqiiiii      rrriiiiiiqqq                                                                                                            :::000000***                    oo",
"%%            999qqqiiiii      rrriiiiiiqqq                                                                                                            :::000000***                    oo",
"%%            999qqqiiiii      rrriiiiiiqqq                                                                                                            :::000000***                    oo",
"%%            yyy                       999  000%%%ttttttiiittt        :::qqqiii$$$::qqqiii$$$         $$ttt   qqq      ===**qqqqqq***         ++,,,000iiiqqq000&&&                    oo",
"%%            yyy                       999  000%%%ttttttiiittt        :::qqqiii$$$::qqqiii$$$         $$ttt   qqq      ===**qqqqqq***         ++,,,000iiiqqq000&&&                    oo",
"%%            yyy                       999  000%%%ttttttiiittt        :::qqqiii$$$::qqqiii$$$         $$ttt   qqq      ===**qqqqqq***         ++,,,000iiiqqq000&&&                    oo",
"%%            rrr++++++++         ++++++999  $$$wwwwwwwwwwwwwww00   333wwwwwwwww666wwwwwwww$$$   999wwwwwwwwwww>>>   666wwwwwwwwwwwwwwqqq   :::wwwwwwwwwwwwwwwww&&&                    oo",
"%%            rrr++++++++         ++++++999  $$$wwwwwwwwwwwwwww00   333wwwwwwwww666wwwwwwww$$$   999wwwwwwwwwww>>>   666wwwwwwwwwwwwwwqqq   :::wwwwwwwwwwwwwwwww&&&                    oo",
"%%            999::::::::   qqq:::::::::***              tttttt&&      :::tttttt   ::tttttt:::   rrrrrrrr   ---      $$$tttttttttttttttttqqqrrrrrrrr666rrrrrrrrr%%%                    oo",
"%%            999::::::::   qqq:::::::::***              tttttt&&      :::tttttt   ::tttttt:::   rrrrrrrr   ---      $$$tttttttttttttttttqqqrrrrrrrr666rrrrrrrrr%%%                    oo",
"%%            999::::::::   qqq:::::::::***              tttttt&&      :::tttttt   ::tttttt:::   rrrrrrrr   ---      $$$tttttttttttttttttqqqrrrrrrrr666rrrrrrrrr%%%                    oo",
"%%            &&&<<<<<<<<   <<<<<<<<<<<<&&&  %%%999yyytttyyyyyy$$      $$$yyyyyy   $$yyyyyy:::   tttttttt$$$         oooyyyyy   %%%yyyyyyqqqtttttttt$$$ttttttttt%%%                    oo",
"%%            &&&<<<<<<<<   <<<<<<<<<<<<&&&  %%%999yyytttyyyyyy$$      $$$yyyyyy   $$yyyyyy:::   tttttttt$$$         oooyyyyy   %%%yyyyyyqqqtttttttt$$$ttttttttt%%%                    oo",
"%%            &&&<<<<<<<<   <<<<<<<<<<<<&&&  %%%999yyytttyyyyyy$$      $$$yyyyyy   $$yyyyyy:::   tttttttt$$$         oooyyyyy   %%%yyyyyyqqqtttttttt$$$ttttttttt%%%                    oo",
"%%            $$$44444444444444444444444%%%##                  $$      ooo         oo   $$$$$$   $$$qqqqqqqqqqq      999   XX      @@@%%%   &&&qqiii   ###qqqttt$$$                    oo",
"%%            $$$44444444444444444444444%%%##                  $$      ooo         oo   $$$$$$   $$$qqqqqqqqqqq      999   XX      @@@%%%   &&&qqiii   ###qqqttt$$$                    oo",
"%%            $$$44444444444444444444444%%%##                  $$      ooo         oo   $$$$$$   $$$qqqqqqqqqqq      999   XX      @@@%%%   &&&qqiii   ###qqqttt$$$                    oo",
"%%            $$$66666666666666666666***###++++++++   ooo++++++$$      &&&++++++   $$++++++###      OOOOOOOOOOO***   ***+++++   @@@@@@      OOOOO      OOOOOOOOO$$$                    oo",
"%%            $$$66666666666666666666***###++++++++   ooo++++++$$      &&&++++++   $$++++++###      OOOOOOOOOOO***   ***+++++   @@@@@@      OOOOO      OOOOOOOOO$$$                    oo",
"%%            $$$66666666666666666666***###++++++++   ooo++++++$$      &&&++++++   $$++++++###      OOOOOOOOOOO***   ***+++++   @@@@@@      OOOOO      OOOOOOOOO$$$                    oo",
"%%            $$$eee888ee$$$ooo......ooo   ;;;;;;;;   ###;;;:::&&      ***;;;;;;***;;;;;:::666         $$------999   &&&:::::::::::         --------   ---------###  ***               oo",
"%%            $$$eee888ee$$$ooo......ooo   ;;;;;;;;   ###;;;:::&&      ***;;;;;;***;;;;;:::666         $$------999   &&&:::::::::::         --------   ---------###  ***               oo",
"%%            $$$eee888ee$$$ooo......ooo   ;;;;;;;;   ###;;;:::&&      ***;;;;;;***;;;;;:::666         $$------999   &&&:::::::::::         --------   ---------###  ***               oo",
"%%            &&&888eee88%%%               22222222$$$22222222222      &&&22222222222222222$$$   ###$$$**<<<<<<***   %%%22222111%%%***222   <<<<<<<<qqq<<<<<<<<<###&&<<<               oo",
"%%            &&&888eee88%%%               22222222$$$22222222222      &&&22222222222222222$$$   ###$$$**<<<<<<***   %%%22222111%%%***222   <<<<<<<<qqq<<<<<<<<<###&&<<<               oo",
"%%            &&&888eee88%%%               22222222$$$22222222222      &&&22222222222222222$$$   ###$$$**<<<<<<***   %%%22222111%%%***222   <<<<<<<<qqq<<<<<<<<<###&&<<<               oo",
"%%         $$$eeeeeeeeeeeeee$$$            $$777777777777ooo77777444   $$$777777...99777777:::   ,,,55555555555$$$   $$$66666666666666$$$   OOO5555555555555555555555$$$               oo",
"%%         $$$eeeeeeeeeeeeee$$$            $$777777777777ooo77777444   $$$777777...99777777:::   ,,,55555555555$$$   $$$66666666666666$$$   OOO5555555555555555555555$$$               oo",
"%%            $$#888eeeqq$$$                 ooo$$$%%%***   $$$%%ooo      $$$&&&###  &&&%%%###   %%%XXX--$$$            $$$%%$$$XXX...$$$   oooooXXX   XXX#########oo                  oo",
"%%            $$$888eeeqq$$$                 ooo$$$%%%***   $$$%%ooo      $$$&&&###  &&&%%%###   %%%XXX--$$$            $$$%%$$$XXX...$$$   oooooXXX   XXX#########oo                  oo",
"%%            $$$88eeeeqq$$$                 ooo$$$%%%***   $$$%%ooo      $$$&&&###  &&&%%%###   %%%XXX--$$$            $$$%%$$$XXX...$$$   oooooXXX   XXX#########oo                  oo",
"%%                  $$$                                                                                                                                                                oo",
"%%                  $$$                                                                                                                                                                oo",
"%%                  $$$                                                                                                                                                                oo",
"%%                                                                                                                                                                                     oo",
"%%                                                                                                                                                                                     oo",
"%%                                                                                                                                                                                     oo",
"%%                                                                                                                                                                                     oo",
"%%                                                                                                                                                                                     oo",
"%%                                                                                                                                                                                     oo",
"%%      ***$$$ooo                                                                                                                                                       ***$$$ooo      oo",
"%%      ***$$$ooo                                                                                                                                                       ***$$$ooo      oo",
"%%      ***$$$ooo                                                                                                                                                       ***$$$ooo      oo",
"%%      $$$ooo...                                                                                                                                                       $$$ooo...      oo",
"%%      $$$ooo...                                                                                                                                                       $$$ooo...      oo",
"%%      $$$ooo...                                                                                                                                                       $$$ooo...      oo",
"%%      ooo......                                                                                                                                                       ooo......      oo",
"%%      ooo......                                                                                                                                                       ooo......      oo",
"%%                                                                                                                                                                                     oo",
"%%                                                                                                                                                                                     oo",
"%%                                                                                                                                                                                     oo",
"%%                                                                                                                                                                                     oo",
"%%                                                                                                                                                                                     oo",
"%%                                                                                                                                                                                     oo",
"%%%%%%%%%%%%%%%%%%%%%%%%%%%%%%%$$$$$$$$$$$$$$$$$$$$$$$$$$$$$$$$$$$$$$$$$$$$$$$$$$$$$$##########################################################oooooooooooooooooooooooooooooooooooooooooo",
"%%%%%%%%%%%%%%%%%%%%%%%%%%%%%%%$$$$$$$$$$$$$$$$$$$$$$$$$$$$$$$$$$$$$$$$$$$$$$$$$$$$$$##########################################################oooooooooooooooooooooooooooooooooooooooooo",
"%%%%%%%%%%%%%%%%%%%%%%%%%%%%%%%$$$$$$$$$$$$$$$$$$$$$$$$$$$$$$$$$$$$$$$$$$$$$$$$$$$$$$##########################################################oooooooooooooooooooooooooooooooooooooooooo"
};
