/* XPM */
static char *bricks[] = {
/* columns rows colors chars-per-pixel */
"64 64 46 1 ",
"  c #2E271E",
". c #352D23",
"X c #373026",
"o c #393126",
"O c #3D3529",
"+ c #3F382C",
"@ c #40372B",
"# c #42392D",
"$ c #463E30",
"% c #483F31",
"& c #464032",
"* c #4D4334",
"= c #514636",
"- c #534738",
"; c #564A3A",
": c #5A4E3C",
"> c #5D513F",
", c #584F40",
"< c #5E5341",
"1 c #625542",
"2 c #665945",
"3 c #695B46",
"4 c #665C48",
"5 c #6B5E49",
"6 c #6E614B",
"7 c #72634D",
"8 c #6F6550",
"9 c #746650",
"0 c #786750",
"q c #756952",
"w c #7C6B53",
"e c #7E6F58",
"r c #7F7057",
"t c #7E7058",
"y c #816E56",
"u c #817057",
"i c #84735A",
"p c #89765C",
"a c #87785E",
"s c #8B795E",
"d c #877A60",
"f c #8D7C61",
"g c #917E62",
"h c #8E8165",
"j c #938265",
"k c #938369",
/* pixels */
".oOOo@@oo.o@###@@OOO@O@@%##Oo.  .@##@@o@++$#+oooXXoo+++$OX+@+O+#",
"o;:>;>>::;::::-@O--<1>,<2<;---=o@;><:;=-;;:::-*oo*:1>:;;::>>>-=+",
"#<122211373211>#@>18941452<;>;>+#:3321:<134521:#O:49923142865>=o",
"o;<yppyyypp0w21#@,5dkapagyw09<:##:3wpy078pssw3-#+17hhiruaasap1:o",
".;>0yyyywpsrw21##>5adrtapyww91:+%>7yiiy70pssy3:#+13apuypjggur<:@",
" *>2111126623>:+#:>562415226551##1575731:21433>@+;>421>2963<1>:@",
".*;:::>>>11>>:-+#;;;:-:::,:<12<#%:>;=;;>;>->>1:oo=:><-;->;::;;=@",
".@@#@@@@+++O$+#O+###+OoOO+$$$%$OoOooo@@@O@@###@..o#$#@@O+O@@@@oo",
"X@@##+OX.o@@#+##&&%+ooOoo##@@###@@o..OOOo@@@##o.o$%%%#@oo##@OOoO",
":><<:>;oo-:;>:<<23211;*o@:<;><>>>>>:1;-.o->12>;=;>>:>>:@+::=;;:;",
">13521>#O;12634435632;:@%2313365575371;oO;115511123231>@#:113267",
"ipipy2:#+*:0hhar7yypu1;O$15wpsfhgpppp3;oO:1ypppyywyyy1>OO;1yppgg",
"yuyuy<;OO*:0gjgp00yyy1-@$28rssfkppppp3:@@110epppyyppi3>@O;1yyppp",
"751251>o@*:1675632113<-@#>><16893>:1311%$11345776232631Oo;:31336",
">1:;>>=.X*-::;:<>:>><;*OO:;:>1><-**:>1;@+;;:;>11>>>111:Oo:::::::",
"#@@@##@oXo@@@ooo@@@###OXXOO###++o.o@#$#@.@@@@@@#$$$$%#@.oO#@Oo@#",
"o@@@@@OO@#@@@oX.XO@@@#OOO$+++$+O.oO$##+O@o@@@@@Xo&$$##Ooo+&++O+O",
"o:11121211::;:=XO*::111;:<<,;<,+O*;<,,;;;:>:;;-O+>>>>:;*=:>>>;>#",
"@:132635576676>+#>2336655632<1<$@:,242411111>:*@+>>2222>269963>&",
"@:10rhdspspgp61+#16sjhpppyuyi5<$@>2wuqtqy0iyw:*O#13riuiupissu6>#",
"O:>77wwripsjh6>+#19hgspppiiiy5>%$1370wspu0pgi1*OO;2wariigpspu91$",
"@><13552511361:o#<6qq833331>231@O>11>22411670>-O+;17921>113333>+",
"o->:>>:=-->:>;*.X-,<<<:><<:;;:>@O;:;;;>>>:111;=@o%=:>;;*::::>>:+",
"oOo+$++XXXO@#$+O.OOO+#####@oo#@o.O##oOOOOO@@@ooo.o.OOOooo@@###Oo",
"@@OoO+O..X#&##++ooooo##+++++@@@@##$#+O#o+O@@@@@#+XXoO@O.oO#+#+##",
";:;=;>;OX>>1>222>>-::>>++;:>:>:;;<<:;;:+@*;>::;:;;;:11;@o=;;::11",
"1311>4>++>4q69662321>:;+@:>5353115552<<@@>6076331127731@+=>46377",
"iyww61;+o;4dphspupip01:+O-1iggiuwwuyw11#+;2shguw70usa6>#O=1asggj",
"ju7761;+o;3shsipuarr7>>O+=3ypppsuursa51#@;1ggsiuuw7uy1-o+=1rpuup",
"61>>12>#+;2531>31656321oO-1332361<:6583%@;-13776311111;@O=:>1137",
">::;>1>##;>>>:;:::>>::-XX*>;==;:;;*,:1>#.*;>1111<>-;:>;@o*--;;;:",
"OOOo#$&+o+ooOOoOO+###+o..X#@o..ooOoOX+#O..@O#@#@@@#####X o@@OXo+",
".o+XO+$$$@ooo@@.o++#@@XoXX+oX.X XO++O+O+O##@@@#oo@@@$#$@o@@#@o..",
"X==*:>1>1<:*==*@o;;>:>;-;;:====XO:41<:-::>:-:;-oO*1>>>1:;;:1>;*o",
"#:>>479676313>;oo:;113313>1>;==O#<qqq62256666<>@#:116676515371:@",
"&>27rihspuy003:@O:1ripppi0793:;##18aawq80pssi1;@#>3ygjjspyppp61@",
"$:26wuipy077y3:@o=<7yypps0q79>;+#>3utr866ipsu2:@#13pjjjpy0yyy5>@",
"O;1<1<3621>111:@+;133333713355>#+>1121>:-1253>-##2277721>1>113:o",
".%=:>>>:;;;:;:;@O=:::;:>1>1>>>-oX*::1>:-&%;:1;-O+::>>1;:;=*=;>:o",
"   O@###+@O@oo@oO@#$#+++##&&&#+oXO@O@@@oX.O#$@#XO+++OOo#@@o@@@@o",
"o..o@##@@@@@OO@#@#@#@@XXo##$++@@+++O++$XXX+O$@$O@@###$$@@@@@@@@o",
";*%**;:#@><<>:>>>111;;*O+>>1>1>>>::;>>>O+;>;><1::>1>::;@o=>>:::=",
"1<<111>#%11777333631>>:##>1212222222664$$14113331331121@o;:>>111",
"pu0yy1:@@15pjgsgphpu0<;@#1200rw7upggs81#$14wyyyyyuy07:;oo->7yypy",
"giipp3;@#13ygjgspgpi01:##>10w0w0yphha6>++>7uiuyyippy01:@@;:7yppp",
"756373>oo;1157611331><:#@;122163226q94>o#>11<11566511>;@@::13577",
"::>:>>=oo=;=;::=;:;;=>;@O->:;;:>:->11>-X+=:::1:::>:::<>@o=:1:111",
"o@@o@@o..o@@@@@oo@@@@@@oXO#+OO+##O+##++o++#@###@O@O@o@#Ooo@@oo@#",
"o@@oo.ooOO@@@@o.o@%####OO#$#OOX.oo##OoOO@@##$%@..@@Ooo+OOXooX.XX",
"@;;;==--=;>1>:*o@;2<1>:-:<211-;OO*->:::1>1;;:<*oo;>;;*;>;;=;;;*X",
"@>11<13111331:=o@>639651366653>oX->33221111111=o#>622>252>>352:O",
"@11yyspu0yyi0>*o@:5yfdduiiuup71#+:1usspuygiy7:*o+;3wiiiawrusp6<@",
"#130uggpyyppy>*.o;5ypppiiiypu3>@+;2wiuywypggy<;oo;2rsi00ypiiy5>#",
"#1211231:3351:* .*<2222112112>>@#-1>2111277751;@o;>566>:;12331>#",
"O;;;=:>>:>::;;=..*;--;=;;>>;;=>o#;>:-=-=;>111:*oo;>22>>;==;::;=o",
".oo++o+o@#@@@@o..oo@o#o@@@@@@@@@+##+@o@o@#@@@@@oo#####$+oo@#@oo.",
"O@@@@@@oO@@@@@@oo@@@o@@oX#$$+++#&&#+OOOoO$+++##@@@@##$#ooo@@@ooo",
"=:11:;=oO=:-;-;;;>><::;@O;<1<:-:<<::<>;O+114<1<<>:;;;::#@=1;;===",
"13353:=@@;>>333335552>*oO:<45566614362:+#150886673>1>2>#@;112>11",
"3yyyy:=@@;1yyyyypsspy2;@O;1wahhhiaagu3:OX:6hkhfsgiw074>$#>1yyyyy",
"yyy7y>:#@>1yyyyypiiiy2-Oo:2rpdfkugsgu<*oO;3ushgaairw031%#13yyy07",
"113>331##1133331537331:#@266355637775>*oX*1335322262313%%1111311",
":->;11:@@>>;=;;;><1>><-O#>2::;>111>1<;*..*;>;;;:;>>;;:1##;>:>1>:",
"oO##%##oo@@@o@O@@#@###OOo##+@O#%######@o.O@$#@O+#++O@#$@@oo@$$%%"
};
