/* XPM */
static char *_63794938f4542e58d58dc919955ea53[] = {
/* columns rows colors chars-per-pixel */
"64 64 27 1 ",
"  c black",
". c gray4",
"X c gray8",
"o c #1E1E1E",
"O c #282828",
"+ c gray20",
"@ c gray24",
"# c gray28",
"$ c #515151",
"% c #5B5B5B",
"& c gray40",
"* c gray44",
"= c gray48",
"- c #848484",
"; c #8E8E8E",
": c gray60",
"> c gray64",
", c gray68",
"< c #B1B0B1",
"1 c #B2B0B2",
"2 c #B7B7B7",
"3 c #C1C1C1",
"4 c gray80",
"5 c gray84",
"6 c gray88",
"7 c #EAEAEA",
"8 c #F4F4F4",
/* pixels */
"o..ooO   .XXX$oX..XXXX.X.XoX%*O   O*%XoX.X.XXXX..Xo$XXX.   Ooo..",
".XXooo  ....Xo+X.XOoX.X.oo#o,@.   .@,o#oo.X.XoOX.X+oX....  oooXX",
"OOXO..  .X.XO7OOXoX.OX+Xo+7ooo.   .ooo7+oX+XO.XoXOO7OX.X.  ..OXO",
"..oOX.  OOXO+oo..XXO@oXXX+$o+..   ..+o$+XXXo@OXX..oo+OXOO  .XOo.",
"XoXo.X  .X=.X...XXOXOOX@Xo+oo@.. ..@oo+oX@XOOXOXX...X.=X.  X.oXo",
"XO+XXo  .....OXoO+X++oOoX +@.X.. ..X.@+ XoOo++X+OoXO.....  oXX+O",
".OO.oX  ....XO.ooO+O+O+oXoO@XX.. ..XX@OoXo+O+O+Ooo.OX....  Xo.OO",
".#XXo.  ...oX#@OX@+@@@+oXOO#oX.. ..Xo#OOXo+@@@+@XO@#Xo...  .oXX#",
"X+OOX.. ..XXXX+o+O+$=;@+XX+@oX.. ..Xo@+XX+@;=$+O+o+XXXX.. ..XOO+",
"$X+XX.. ..oXo.Oo+O@;,=@+oOO%XX.. ..XX%OOo+@=,;@O+oO.oXo.. ..XX+X",
"@.ooX.. ..ooOOO++#&  ,$Oo+o$+X.. ..X+$o+oO$,  &#++OOOoo.. ..Xoo.",
"XO3oo.. ...o@OX+;#*8 2%#ooo%oo.. ..oo%ooo#%2 8*#;+XO@o... ..oo3O",
"XOXoX.. ..OXo@o@#@*-: &$O+=ooX.. ..Xoo=+O$& :-*@#@o@oXO.. ..XoXO",
"+XXo.o. ...X.OO+@>@%&:4#++$XO+.. ..+OX$++#4:&%@>@+OO.X... .o.oXX",
"+X.o+o. ....ooOXO@O%@#--#OO@+o.. ..o+@OO#--#@%O@OXOoo.... .o+o.X",
"*@X+X.. .XX..XooOO@O@#&,*@o#@o.. ..o@#o@*,&#@O@OOooX..XX. ..X+X@",
"+OXOooo XOoXo..XXXXooO@$ =oOooX. .XooOo= $@OooXXXX..oXoOX oooOXO",
"XXo.OXX oX@.O+OX.+O@oXo@$,+XoOX. .XOoX+,$@oXo@O+.XO+O.@Xo XXO.oX",
"&XO.... X+XXO#%OXo.O+OOo$%-#++X. .X++#-%$oOO+O.oXO%#OXX+X ....OX",
"ooXXooX ...XoOoOO#Ooo.O+XO:*XOO. .OOX*:OX+O.ooO#OOoOoX... XooXXo",
"XXoX+X. .X.o;*oXXXoXXOoO.oo@OoX. .XoO@oo.OoOXXoXXXo*;o.X. .X+XoX",
"XXXX... oX.OX#oOX....Xo+oOo.oXOX XOXo.oOo+oX....XOo#XO.Xo ...XXX",
"             ............X.+.X.O O.X.+.X............            ",
"                     .....oo>XOX XOX>oo.....                    ",
"...XXX. XXXXO............XXXXX#X X#XXXXX............OXXXX .XXX..",
"..XXo+X O..++X...XXXXXXX..OO$#+X X+#$OO..XXXXXXX...X++..O X+oXX.",
"..XX#.X XOoXo..XXXXX*ooXoXX+%$XX XX$%+XXoXoo*XXXXX..oXoOX X.#XX.",
"...oOX. oOO@..XXX#X.OOXooXXo#;@. .@;#oXXooXOO.X#XXX..@OOo .XOo..",
"X..XO@O @#XX.o@oXo$oo+#oO+oXo+o. .o+oXo+Oo#+oo$oXo@o.XX#@ O@OX..",
"XXX.O@o ooo.O%.O@XOoo$o+OoOoo$o. .o$ooOoO+o$ooOX@O.%O.ooo o@O.XX",
"@ooXX>O .@Xo.O XoO+O+%O$O#OXOoo. .ooOXO#O$O%+O+OoX O.oX@. O>XXoo",
"%ooX.oX oX.X%$O+ @5+&$%=+*+oOXOX XOXOo+*+=%$&+5@ +O$%X.Xo Xo.Xoo",
"++OoXO@.X.o%Xo@O@+#*$&&$&#+OO+oX Xo+OO+#&$&&$*#+@O@oX%o.X.@OXoO+",
"$#OOXXX..o+O+O4#@=%&-,:- -$#@$oX Xo$@#$- -:,-&%=@#4O+O+o..XXXOO#",
"*&@+oOO.XO++*%*#%;6    7>;$@%@Oo oO@%@$;>7    6;%#*%*++OX.OOo+@&",
"3;*$+&o.+oO##*-3         3,&$&$o o$&$&,3         3-*##Oo+.o&+$*;",
"=%##oOO.OX+$+%$%=,      4;- #$@X X@$# -;4      ,=%$%+$+XO.OOo##%",
"#%@OXoX..oooO+O+$&*->45>>&=##OOX XOO##=&>>54>-*&$+O+Oooo..XoXO@%",
"OO+oO.X..XoOO$@*O@##*,*,*%%O+$+X X+$+O%%*,*,*##@O*@$OOoX..X.Oo+O",
"OoXoX+o.XoX:@Xo-O%+@%4$##$@oO @X X@ Oo@$##$4%@+%O-oX@:XoX.o+XoXo",
"oOoXX;X Oo..o%#OO&O+%+@%@++o%O+. .+O%o++@%@+%+O&OO#%o..oO X;XXoO",
"ooX.o&O ooO.X.o:+OX@@+OoOOoO+$o. .o$+OoOOoO+@@XO+:o.X.Ooo O&o.Xo",
"XO.oOO. =+OXX@oXo5o+#o+++++XO+o. .o+OX+++++o#+o5oXo@XXO+= .OOo.O",
"X..X.XX oo#O.XXo+X.o@XooooXX+&O. .O&+XXooooX@o.X+oXX.O#oo XX.X..",
"..X@-.X ..XX+..XXXXooo@+XX.o##O. .O##o.XX+@oooXXXX..+XX.. X.-@X.",
"..XoXX. X.#O+...oXXXXX@XX.oO+#XX XX#+Oo.XX@XXXXXo...+O#.X .XXoX.",
"..XoXXo X..XOX...........oooO@%X X%@Oooo...........XOX..X oXXoX.",
"         ..X.............XoO+Xo# #oX+OoX.............X..        ",
"                         ..XO.OX XO.OX..                        ",
"..XX..X o..OoXoX.......XOOOO..OX XO..OOOOX.......XoXoO..o X..XX.",
"XooX... XX..oo+#oX.XoXooX.X++oO. .Oo++X.XooXoX.Xo#+oo..XX ...Xoo",
"o+.XXXX .oXO.XX*@oo+oO.XOO#-@%O. .O%@-#OOX.Oo+oo@*XX.OXo. XXXX.+",
"O&#.OX. ..oX+>+OOXXXoo+oO$ +XOO. .OOX+ $Oo+ooXXXOO+>+Xo.. .XO.#&",
"o...oX. +oOXoXOOo.OooOoO$7&oOOX. .XOOo&7$OoOooO.oOOXoXOo+ .Xo...",
"OoXo+X@ #X@.+X.XXO+ooo++=&+o$oX. .Xo$o+&=++ooo+OXX.X+.@X# @X+oXo",
"#+X+XoX .XXo.XXoooOOO+#-*#+#@o.. ..o@#+#*-#+OOOoooXX.oXX. XoX+X+",
"@oX+XX. ....oXooOO+$*@%2#OOo@+.. ..+@oOO#2%@*$+OOooXo.... .XX+Xo",
"oX.o.o. ...XX+o$O+@@#- %#O#XO+.. ..+OX#O#% -#@@+O$o+XX... .o.o.X",
"o+oOO.. ..OX.+o+$@*=>7>@+X%ooX.. ..Xoo%X+@>7>=*@$+o+.XO.. ..OOo+",
"Oo@oX.. ...Xooo+#4,, 4*#o@+Oo$.. ..$oO+@o#*4 ,,4#+oooX... ..Xo@o",
"+.oXo.. ..oo$+OOO+%  :#&o2@@oX.. ..Xo@@2o&#:  %+OOO+$oo.. ..oXo.",
"o.@+X.. ..oX#.%&o+%; ;%+oO.#oX.. ..Xo#.Oo+%; ;%+o&%.#Xo.. ..X+@.",
" oOXX.. ..XXXXoX&++%,=%+XoOOOX.. ..XOOOoX+%=,%++&XoXXXX.. ..XXO ",
"  Oo+.  ...XXooOo+$+#&$+Xoo@OX.. ..XO@ooX+$&#+$+oOooXX...  .+o  "
};
